<?xml version="1.0" standalone="no"?>
<!DOCTYPE svg PUBLIC "-//W3C//DTD SVG 20010904//EN"
 "http://www.w3.org/TR/2001/REC-SVG-20010904/DTD/svg10.dtd">
<svg version="1.0" xmlns="http://www.w3.org/2000/svg"
 width="512.000000pt" height="512.000000pt" viewBox="0 0 512.000000 512.000000"
 preserveAspectRatio="xMidYMid meet">

<g transform="translate(0.000000,512.000000) scale(0.100000,-0.100000)"
fill="#000000" stroke="none">
<path d="M2370 5079 c-527 -36 -920 -293 -1140 -744 -124 -254 -200 -578 -231
-979 -18 -231 -6 -848 25 -1286 27 -387 34 -753 15 -840 -12 -55 -7 -50 -146
-141 -277 -179 -444 -489 -460 -854 -6 -130 -6 -130 21 -162 33 -39 73 -49
119 -29 49 20 63 54 71 171 9 132 30 232 71 332 83 206 241 364 440 438 135
51 177 56 560 62 l359 6 28 28 28 27 0 177 c0 165 1 177 18 169 9 -4 62 -23
117 -42 88 -31 115 -36 227 -40 172 -6 301 20 441 90 l57 28 0 -191 0 -191 29
-29 c16 -16 40 -29 53 -29 13 0 172 -1 353 -3 353 -5 404 -10 540 -62 199 -74
357 -232 440 -438 41 -100 62 -200 71 -332 8 -117 22 -151 71 -171 46 -20 86
-10 119 29 27 32 27 32 21 162 -10 219 -74 420 -184 579 -77 112 -114 187
-142 292 -59 225 -76 528 -60 1119 20 739 6 1160 -47 1470 -114 670 -435 1092
-974 1280 -240 83 -606 125 -910 104z m535 -232 c561 -92 889 -359 1056 -859
118 -351 151 -739 131 -1532 -19 -732 -15 -944 23 -1200 8 -55 14 -100 12
-102 -1 -1 -35 12 -75 28 -142 57 -223 69 -498 75 l-251 6 54 86 c69 108 170
315 218 446 46 123 98 324 122 470 25 152 25 532 0 690 -40 250 -109 496 -207
733 -97 238 -297 610 -341 636 -46 27 -94 21 -136 -18 -79 -70 -176 -102 -432
-141 -380 -59 -489 -88 -661 -176 -295 -152 -457 -409 -517 -819 -22 -153 -21
-473 1 -675 40 -354 128 -775 253 -1216 4 -14 -17 -17 -169 -22 -95 -4 -184
-10 -198 -13 l-25 -5 -1 273 c0 174 -8 380 -22 568 -65 894 -51 1387 54 1804
144 578 454 888 969 971 115 18 508 13 640 -8z m242 -934 c103 -200 163 -340
224 -525 103 -309 141 -610 105 -818 -77 -441 -378 -834 -731 -957 -71 -24
-94 -27 -210 -27 -120 0 -137 2 -217 30 -325 116 -598 467 -690 887 -20 90
-22 131 -22 352 0 196 3 270 17 342 67 354 223 553 512 656 92 33 216 59 456
97 205 32 333 63 409 98 25 11 50 21 56 21 5 1 47 -70 91 -156z m149 -2225
c-24 -51 -55 -113 -70 -138 l-26 -45 0 65 0 65 68 72 c37 40 68 72 69 73 1 0
-17 -42 -41 -92z m-1376 -260 c0 -161 -1 -168 -20 -168 -11 0 -20 3 -20 6 0 3
-22 87 -50 187 -27 100 -56 211 -64 246 l-15 65 84 -84 85 -85 0 -167z"/>
</g>
</svg>
