<?xml version="1.0" standalone="no"?>
<!DOCTYPE svg PUBLIC "-//W3C//DTD SVG 20010904//EN"
 "http://www.w3.org/TR/2001/REC-SVG-20010904/DTD/svg10.dtd">
<svg version="1.0" xmlns="http://www.w3.org/2000/svg"
 width="50.000000pt" height="50.000000pt" viewBox="0 0 50.000000 50.000000"
 preserveAspectRatio="xMidYMid meet">

<g transform="translate(0.000000,50.000000) scale(0.100000,-0.100000)"
fill="#000000" stroke="none">
<path d="M138 417 c-120 -77 -125 -81 -109 -101 13 -15 11 -81 -4 -136 -4 -16
-1 -32 9 -45 l16 -20 16 20 c9 13 13 29 9 45 -4 14 -9 43 -12 65 -5 35 -4 38
10 27 8 -7 13 -21 10 -32 -3 -11 0 -20 6 -20 6 0 11 4 11 9 0 10 85 31 123 31
36 0 -3 -30 -49 -37 -21 -3 -45 -10 -51 -16 -18 -13 -16 -42 3 -57 11 -10 44
-72 44 -84 0 0 -22 1 -50 2 -35 3 -50 8 -50 18 0 8 -4 14 -10 14 -5 0 -10 -11
-10 -24 0 -22 4 -24 76 -28 41 -3 80 -10 87 -17 14 -14 60 -14 74 0 7 7 46 14
87 17 l76 5 0 61 c0 38 -8 76 -19 101 l-18 40 34 37 c20 20 32 41 29 46 -10
16 -214 142 -228 141 -7 0 -57 -28 -110 -62z m213 -19 c54 -33 99 -64 99 -68
0 -4 -11 -17 -25 -30 -25 -23 -25 -23 -25 -2 0 17 -10 24 -52 37 -28 8 -72 15
-98 15 -26 0 -70 -7 -98 -15 -42 -13 -52 -20 -52 -37 0 -21 0 -21 -25 2 -14
13 -24 27 -23 32 3 6 187 127 197 128 1 0 48 -28 102 -62z m-15 -79 c36 -9 44
-15 44 -34 0 -22 -3 -23 -32 -14 -18 5 -62 9 -98 9 -36 0 -80 -4 -98 -9 -30
-9 -32 -8 -32 14 0 18 8 25 38 33 51 14 125 14 178 1z m-1 -96 c30 -30 35 -40
26 -53 -6 -8 -22 -37 -36 -63 -47 -87 -105 -87 -149 2 -14 27 -30 52 -36 56
-22 14 -10 35 20 35 34 0 79 20 99 44 20 24 35 20 76 -21z m49 17 c28 -10 46
-59 46 -127 l0 -43 -50 0 -50 0 12 28 c7 15 20 36 30 48 25 28 23 49 -9 79
-29 26 -22 32 21 15z m-324 -70 c0 -5 -4 -10 -10 -10 -5 0 -10 5 -10 10 0 6 5
10 10 10 6 0 10 -4 10 -10z"/>
</g>
</svg>
