<svg xmlns="http://www.w3.org/2000/svg" xmlns:xlink="http://www.w3.org/1999/xlink" width="25" height="25" viewBox="0 -10 45 60" version="1.1">
<g id="surface1">
<path style=" stroke:none;fill-rule:nonzero;fill:rgb(0%,0%,0%);fill-opacity:1;" d="M 20 0 C 13.535156 0 8.277344 5.257812 8.277344 11.722656 C 8.277344 13.484375 8.660156 15.179688 9.414062 16.757812 C 9.429688 16.792969 9.445312 16.824219 9.460938 16.859375 L 18.316406 34.003906 C 18.640625 34.632812 19.292969 35.03125 20 35.03125 C 20.707031 35.03125 21.359375 34.632812 21.683594 34.003906 L 30.535156 16.863281 C 30.550781 16.832031 30.566406 16.804688 30.578125 16.773438 C 31.335938 15.1875 31.722656 13.488281 31.722656 11.722656 C 31.722656 5.257812 26.464844 0 20 0 Z M 20 17.855469 C 16.617188 17.855469 13.863281 15.105469 13.863281 11.722656 C 13.863281 8.339844 16.617188 5.585938 20 5.585938 C 23.382812 5.585938 26.136719 8.339844 26.136719 11.722656 C 26.136719 15.105469 23.382812 17.855469 20 17.855469 Z M 20 17.855469 "></path>
<path style=" stroke:none;fill-rule:nonzero;fill:rgb(0%,0%,0%);fill-opacity:1;" d="M 24.515625 37.726562 L 15.484375 37.726562 C 14.855469 37.726562 14.347656 38.234375 14.347656 38.863281 C 14.347656 39.492188 14.855469 40 15.484375 40 L 24.515625 40 C 25.144531 40 25.652344 39.492188 25.652344 38.863281 C 25.652344 38.234375 25.140625 37.726562 24.515625 37.726562 Z M 24.515625 37.726562 "></path>
</g>
</svg>