<?xml version="1.0" standalone="no"?>
<!DOCTYPE svg PUBLIC "-//W3C//DTD SVG 20010904//EN"
 "http://www.w3.org/TR/2001/REC-SVG-20010904/DTD/svg10.dtd">
<svg version="1.0" xmlns="http://www.w3.org/2000/svg"
 width="40.000000pt" height="40.000000pt" viewBox="0 0 65.000000 65.000000"
 preserveAspectRatio="xMidYMid meet">

<g transform="translate(0.000000,65.000000) scale(0.100000,-0.100000)"
fill="#fff" stroke="none">
<path d="M259 624 c-103 -31 -189 -146 -189 -253 0 -43 -5 -61 -26 -88 -29
-39 -28 -64 4 -78 18 -8 22 -18 22 -56 0 -56 16 -72 73 -75 23 -1 45 -2 50 -3
4 -1 7 -11 7 -24 0 -13 5 -28 12 -35 17 -17 279 -17 296 0 7 7 12 41 12 84 0
66 3 76 36 124 51 74 64 111 64 177 0 172 -178 284 -361 227z m201 -45 c54
-24 77 -44 98 -84 41 -80 32 -167 -25 -242 -42 -54 -53 -89 -53 -160 l0 -53
-117 0 -118 0 -15 33 c-14 29 -20 32 -65 35 -57 4 -65 12 -65 69 0 32 -5 45
-20 53 -20 11 -20 11 5 44 20 26 25 44 25 90 0 65 15 107 56 155 64 76 198
104 294 60z"/>
<path d="M244 474 c-53 -26 -71 -103 -38 -154 32 -48 118 -130 137 -130 24 0
121 92 141 135 23 48 20 89 -9 123 -31 37 -68 47 -104 29 -24 -12 -32 -12 -52
-1 -31 17 -37 17 -75 -2z m75 -40 c21 -15 25 -15 56 2 31 17 35 17 59 1 31
-21 35 -69 10 -107 -26 -38 -87 -100 -99 -100 -16 0 -90 80 -109 117 -17 33
-13 56 12 86 19 21 41 22 71 1z"/>
</g>
</svg>
