<?xml version="1.0" standalone="no"?>
<!DOCTYPE svg PUBLIC "-//W3C//DTD SVG 20010904//EN"
 "http://www.w3.org/TR/2001/REC-SVG-20010904/DTD/svg10.dtd">
<svg version="1.0" xmlns="http://www.w3.org/2000/svg"
 width="96.000000pt" height="96.000000pt" viewBox="0 0 96.000000 96.000000"
 preserveAspectRatio="xMidYMid meet">

<g transform="translate(0.000000,96.000000) scale(0.100000,-0.100000)"
fill="#000000" stroke="none">
<path d="M654 912 c-6 -4 -14 -17 -18 -29 -8 -24 -13 -26 -57 -23 -45 2 -93
-99 -54 -114 8 -3 15 -15 15 -26 0 -11 -7 -23 -15 -26 -21 -8 -19 -41 6 -81
16 -26 28 -34 48 -33 44 3 49 1 57 -22 9 -30 22 -38 64 -38 42 0 55 8 64 38 8
23 13 25 57 22 45 -2 93 99 54 114 -8 3 -15 15 -15 26 0 11 7 23 15 26 21 8
19 41 -6 81 -16 26 -28 34 -48 33 -44 -3 -49 -1 -57 23 -9 29 -22 37 -64 37
-19 0 -40 -4 -46 -8z m86 -152 c11 -11 20 -29 20 -40 0 -11 -9 -29 -20 -40
-11 -11 -29 -20 -40 -20 -11 0 -29 9 -40 20 -11 11 -20 29 -20 40 0 11 9 29
20 40 11 11 29 20 40 20 11 0 29 -9 40 -20z"/>
<path d="M149 851 l-29 -29 0 -332 0 -332 29 -29 29 -29 312 0 312 0 29 29 29
29 0 192 0 191 -30 -21 -30 -21 -2 -167 -3 -167 -305 0 -305 0 0 25 c0 22 5
25 40 28 75 6 75 7 75 259 l0 223 80 0 80 0 0 30 0 30 -80 0 -80 0 0 43 c0 56
-22 77 -79 77 -34 0 -49 -6 -72 -29z m91 -301 l0 -270 -30 0 -30 0 0 263 c0
145 3 267 7 270 3 4 17 7 30 7 l23 0 0 -270z"/>
</g>
</svg>
