<?xml version="1.0" encoding="UTF-8"?>
<svg xmlns="http://www.w3.org/2000/svg" xmlns:xlink="http://www.w3.org/1999/xlink" width="60px" height="60px" viewBox="0 0 60 60" version="1.1">
<g id="surface1">
<path style=" stroke:none;fill-rule:nonzero;fill:rgb(100%,100%,100%);fill-opacity:1;" d="M 21.25 6.257812 C 23.917969 6.257812 26.507812 7.15625 28.59375 8.804688 L 29.066406 9.195312 L 30.007812 10.015625 L 30.945312 9.195312 C 32.953125 7.4375 35.492188 6.410156 38.148438 6.273438 L 38.761719 6.257812 L 49.390625 6.257812 C 50.339844 6.257812 51.125 6.964844 51.25 7.878906 L 51.265625 8.132812 L 51.265625 10.015625 L 53.132812 10.019531 C 54.082031 10.019531 54.863281 10.722656 54.988281 11.640625 L 55.007812 11.894531 L 55.007812 50.632812 C 55.007812 51.582031 54.300781 52.367188 53.386719 52.492188 L 53.132812 52.507812 L 6.882812 52.507812 C 5.933594 52.507812 5.148438 51.800781 5.023438 50.886719 L 5.007812 50.632812 L 5.007812 11.894531 C 5.007812 10.945312 5.710938 10.160156 6.625 10.035156 L 6.882812 10.019531 L 8.757812 10.015625 L 8.757812 8.132812 C 8.757812 7.183594 9.460938 6.398438 10.375 6.273438 L 10.632812 6.257812 Z M 21.25 10.007812 L 12.507812 10.007812 L 12.507812 45.023438 L 21.242188 45.023438 C 23.914062 45.023438 26.5 45.925781 28.589844 47.570312 L 29.0625 47.960938 L 30 48.78125 L 30.9375 47.960938 C 32.949219 46.203125 35.488281 45.175781 38.144531 45.039062 L 38.757812 45.023438 L 47.507812 45.023438 L 47.507812 10.015625 L 47.515625 10.015625 L 47.515625 10.007812 L 38.761719 10.007812 C 36.972656 10.007812 35.242188 10.597656 33.828125 11.679688 L 33.414062 12.019531 L 31.882812 13.355469 L 31.882812 43.121094 C 31.882812 44.15625 31.042969 44.996094 30.007812 44.996094 C 29.058594 44.996094 28.273438 44.292969 28.148438 43.375 L 28.132812 43.121094 L 28.132812 13.359375 L 26.597656 12.019531 C 25.253906 10.839844 23.558594 10.140625 21.785156 10.023438 Z M 21.25 10.007812 "/>
</g>
</svg>
