<?xml version="1.0" encoding="UTF-8"?>
<svg xmlns="http://www.w3.org/2000/svg" xmlns:xlink="http://www.w3.org/1999/xlink" width="60px" height="60px" viewBox="0 0 60 60" version="1.1">
<g id="surface1">
<path style=" stroke:none;fill-rule:nonzero;fill:#fff;fill-opacity:1;" d="M 22.824219 52.054688 L 18.945312 52.054688 C 18.257812 52.054688 17.699219 51.5 17.699219 50.8125 C 17.699219 50.125 18.257812 49.566406 18.945312 49.566406 L 22.824219 49.566406 C 23.511719 49.566406 24.066406 50.125 24.066406 50.8125 C 24.066406 51.5 23.511719 52.054688 22.824219 52.054688 Z M 22.824219 52.054688 "/>
<path style=" stroke:none;fill-rule:nonzero;fill:#fff;fill-opacity:1;" d="M 24.59375 43.191406 L 17.382812 35.980469 C 17.148438 35.75 16.832031 35.617188 16.503906 35.617188 L 7.09375 35.617188 C 6.40625 35.617188 5.851562 36.175781 5.851562 36.863281 C 5.851562 37.550781 6.40625 38.105469 7.09375 38.105469 L 15.988281 38.105469 L 21.488281 43.609375 L 18.519531 44.777344 C 16.835938 41.726562 13.589844 39.65625 9.867188 39.65625 C 4.425781 39.65625 0 44.082031 0 49.523438 C 0 54.964844 4.425781 59.394531 9.867188 59.394531 C 15.308594 59.394531 19.738281 54.964844 19.738281 49.523438 C 19.738281 48.6875 19.632812 47.871094 19.433594 47.09375 L 24.167969 45.230469 C 24.558594 45.074219 24.84375 44.734375 24.929688 44.324219 C 25.015625 43.914062 24.890625 43.488281 24.59375 43.191406 Z M 9.867188 56.902344 C 5.800781 56.902344 2.488281 53.59375 2.488281 49.523438 C 2.488281 45.457031 5.800781 42.144531 9.867188 42.144531 C 12.539062 42.144531 14.882812 43.570312 16.175781 45.703125 L 9.410156 48.367188 C 8.773438 48.617188 8.457031 49.339844 8.710938 49.980469 C 8.902344 50.472656 9.371094 50.769531 9.867188 50.769531 C 10.019531 50.769531 10.175781 50.742188 10.324219 50.683594 L 17.089844 48.015625 C 17.191406 48.503906 17.246094 49.007812 17.246094 49.523438 C 17.246094 53.59375 13.9375 56.902344 9.867188 56.902344 Z M 9.867188 56.902344 "/>
<path style=" stroke:none;fill-rule:nonzero;fill:#fff;fill-opacity:1;" d="M 50.175781 39.65625 C 49.804688 39.65625 49.441406 39.679688 49.078125 39.71875 L 48.761719 38.40625 C 49.03125 38.367188 49.300781 38.339844 49.574219 38.324219 C 51.441406 38.21875 53.324219 38.621094 55.015625 39.488281 C 55.628906 39.800781 56.378906 39.558594 56.691406 38.949219 C 57.003906 38.335938 56.761719 37.585938 56.148438 37.273438 C 54.066406 36.207031 51.746094 35.710938 49.433594 35.839844 C 49.011719 35.863281 48.589844 35.910156 48.171875 35.976562 L 46.3125 28.316406 C 46.226562 27.96875 46 27.675781 45.683594 27.507812 L 41.820312 25.46875 C 41.808594 25.464844 41.796875 25.460938 41.789062 25.453125 C 41.671875 24.640625 41.03125 23.96875 40.175781 23.851562 L 34.96875 23.148438 L 30.011719 15.226562 C 29.964844 15.152344 29.914062 15.078125 29.859375 15.007812 C 29.378906 14.265625 28.691406 13.671875 27.863281 13.3125 C 31.289062 13.230469 34.042969 10.429688 34.042969 6.984375 C 34.042969 3.488281 31.207031 0.652344 27.710938 0.652344 C 24.214844 0.652344 21.378906 3.488281 21.378906 6.984375 C 21.378906 9.75 23.152344 12.097656 25.621094 12.960938 C 23.527344 13.167969 21.800781 14.820312 21.578125 16.992188 L 21.5 17.773438 C 21.5 17.773438 20.746094 23.019531 17.359375 29.945312 C 16.410156 32.085938 17.140625 34.109375 18.472656 35.597656 C 19.347656 36.53125 20.683594 37.136719 22.394531 37.453125 L 30.085938 39.042969 L 24.894531 49.945312 C 24.375 51.027344 24.742188 52.34375 25.78125 52.996094 C 26.898438 53.695312 28.371094 53.359375 29.074219 52.242188 L 37.84375 38.246094 C 38.019531 37.960938 38.164062 37.632812 38.246094 37.292969 C 38.65625 35.574219 37.597656 33.847656 35.882812 33.4375 L 35.648438 33.382812 L 28.628906 31.695312 C 28.675781 31.546875 28.722656 31.394531 28.769531 31.230469 C 28.875 30.867188 28.992188 30.480469 29.105469 30.0625 C 29.21875 29.644531 29.339844 29.207031 29.449219 28.746094 C 29.507812 28.515625 29.5625 28.285156 29.621094 28.046875 C 29.675781 27.808594 29.730469 27.566406 29.785156 27.324219 C 29.898438 26.839844 29.992188 26.332031 30.09375 25.832031 C 30.160156 25.480469 30.21875 25.121094 30.277344 24.765625 L 31.691406 26.601562 L 31.855469 26.816406 C 32.21875 27.285156 32.789062 27.585938 33.429688 27.589844 L 39.917969 27.582031 C 40.097656 27.582031 40.269531 27.5625 40.433594 27.519531 C 40.503906 27.578125 40.578125 27.628906 40.660156 27.671875 L 44.027344 29.449219 L 45.761719 36.601562 C 42.941406 37.625 40.476562 39.609375 38.917969 42.214844 C 38.566406 42.804688 38.761719 43.570312 39.351562 43.921875 C 39.550781 44.039062 39.769531 44.097656 39.988281 44.097656 C 40.410156 44.097656 40.824219 43.882812 41.058594 43.492188 C 42.273438 41.453125 44.171875 39.890625 46.351562 39.035156 L 46.660156 40.308594 C 42.949219 41.726562 40.308594 45.320312 40.308594 49.523438 C 40.308594 49.671875 40.3125 49.8125 40.320312 49.957031 L 32.511719 49.957031 C 31.824219 49.957031 31.265625 50.515625 31.265625 51.203125 C 31.265625 51.890625 31.824219 52.449219 32.511719 52.449219 L 40.726562 52.449219 C 40.734375 52.449219 40.742188 52.445312 40.75 52.445312 C 42 56.464844 45.753906 59.394531 50.175781 59.394531 C 55.617188 59.394531 60.046875 54.964844 60.046875 49.523438 C 60.046875 44.082031 55.617188 39.65625 50.175781 39.65625 Z M 50.175781 56.902344 C 46.109375 56.902344 42.796875 53.59375 42.796875 49.523438 C 42.796875 46.496094 44.636719 43.886719 47.253906 42.75 L 48.96875 49.820312 C 49.105469 50.386719 49.613281 50.769531 50.175781 50.769531 C 50.273438 50.769531 50.371094 50.757812 50.46875 50.734375 C 51.136719 50.574219 51.550781 49.898438 51.386719 49.230469 L 49.671875 42.164062 C 49.839844 42.152344 50.007812 42.144531 50.175781 42.144531 C 54.246094 42.144531 57.554688 45.457031 57.554688 49.523438 C 57.554688 53.59375 54.246094 56.902344 50.175781 56.902344 Z M 50.175781 56.902344 "/>
</g>
</svg>
