<?xml version="1.0" encoding="UTF-8"?>
<svg xmlns="http://www.w3.org/2000/svg" xmlns:xlink="http://www.w3.org/1999/xlink" width="60px" height="60px" viewBox="0 0 60 60" version="1.1">
<g id="surface1">
<path style=" stroke:none;fill-rule:nonzero;fill:#fff;fill-opacity:1;" d="M 27.480469 2.167969 C 27.210938 2.425781 27.1875 2.542969 27.1875 3.539062 L 27.1875 4.628906 L 26.71875 4.898438 L 26.25 5.15625 L 25.324219 4.617188 C 24.5625 4.183594 24.328125 4.089844 24.035156 4.160156 C 23.847656 4.195312 23.636719 4.300781 23.578125 4.371094 C 23.167969 4.863281 20.507812 9.679688 20.507812 9.925781 C 20.507812 10.40625 20.695312 10.605469 21.621094 11.132812 L 22.5 11.648438 L 22.5 12.761719 L 21.621094 13.242188 C 20.707031 13.746094 20.507812 13.96875 20.507812 14.449219 C 20.507812 14.695312 23.167969 19.511719 23.578125 20.003906 C 23.636719 20.074219 23.847656 20.179688 24.035156 20.214844 C 24.316406 20.273438 24.574219 20.191406 25.324219 19.757812 L 26.273438 19.21875 L 26.730469 19.488281 L 27.1875 19.746094 L 27.1875 20.835938 C 27.1875 21.832031 27.210938 21.949219 27.480469 22.207031 L 27.761719 22.5 L 34.113281 22.5 L 34.394531 22.207031 C 34.664062 21.949219 34.6875 21.832031 34.6875 20.835938 L 34.6875 19.746094 L 35.15625 19.476562 L 35.625 19.21875 L 36.550781 19.757812 C 37.3125 20.191406 37.546875 20.285156 37.839844 20.214844 C 38.027344 20.179688 38.238281 20.074219 38.296875 20.003906 C 38.707031 19.511719 41.367188 14.695312 41.367188 14.449219 C 41.367188 13.96875 41.167969 13.746094 40.253906 13.230469 L 39.375 12.726562 L 39.375 11.648438 L 40.253906 11.132812 C 41.179688 10.605469 41.367188 10.40625 41.367188 9.914062 C 41.367188 9.65625 38.625 4.722656 38.285156 4.371094 C 38.203125 4.289062 37.980469 4.195312 37.78125 4.148438 C 37.5 4.101562 37.347656 4.148438 37.113281 4.359375 C 36.527344 4.886719 36.5625 5.027344 37.910156 7.371094 C 38.589844 8.554688 39.140625 9.539062 39.140625 9.550781 C 39.140625 9.574219 38.835938 9.785156 38.449219 10.007812 C 38.074219 10.242188 37.699219 10.511719 37.617188 10.605469 C 37.40625 10.851562 37.40625 13.523438 37.617188 13.769531 C 37.699219 13.863281 38.074219 14.132812 38.449219 14.367188 C 38.835938 14.589844 39.140625 14.800781 39.140625 14.824219 C 39.140625 14.941406 37.347656 17.929688 37.265625 17.929688 C 37.21875 17.929688 36.820312 17.742188 36.386719 17.519531 C 35.53125 17.074219 35.355469 17.074219 34.746094 17.519531 C 34.558594 17.671875 34.125 17.917969 33.785156 18.09375 C 32.953125 18.515625 32.8125 18.738281 32.8125 19.769531 L 32.8125 20.625 L 29.0625 20.625 L 29.0625 19.734375 C 29.0625 18.925781 29.039062 18.832031 28.746094 18.550781 C 28.441406 18.28125 27.492188 17.671875 26.683594 17.25 C 26.367188 17.085938 26.296875 17.109375 25.476562 17.519531 C 24.960938 17.777344 24.5625 17.917969 24.503906 17.859375 C 24.246094 17.578125 22.734375 14.847656 22.792969 14.765625 C 22.828125 14.71875 23.132812 14.507812 23.472656 14.320312 C 24.398438 13.792969 24.410156 13.78125 24.410156 12.1875 C 24.410156 10.570312 24.398438 10.546875 23.367188 9.960938 C 23.015625 9.761719 22.734375 9.585938 22.734375 9.5625 C 22.734375 9.480469 24.386719 6.644531 24.503906 6.515625 C 24.5625 6.457031 24.960938 6.597656 25.476562 6.855469 C 26.296875 7.265625 26.367188 7.289062 26.683594 7.125 C 27.492188 6.703125 28.441406 6.09375 28.746094 5.824219 C 29.039062 5.542969 29.0625 5.449219 29.0625 4.640625 L 29.0625 3.75 L 32.8125 3.75 L 32.8125 4.640625 C 32.8125 5.460938 32.835938 5.554688 33.152344 5.871094 C 33.339844 6.058594 33.609375 6.210938 33.75 6.210938 C 33.890625 6.210938 34.160156 6.058594 34.347656 5.871094 L 34.6875 5.53125 L 34.6875 3.984375 C 34.6875 2.507812 34.675781 2.4375 34.394531 2.167969 L 34.113281 1.875 L 27.761719 1.875 Z M 27.480469 2.167969 "/>
<path style=" stroke:none;fill-rule:nonzero;fill:#fff;fill-opacity:1;" d="M 45 5.308594 C 44.425781 5.496094 43.441406 6.503906 43.265625 7.101562 C 43.066406 7.769531 43.066406 13.792969 43.265625 14.460938 C 43.417969 14.988281 44.496094 16.171875 44.8125 16.171875 C 44.976562 16.171875 45 16.40625 45 17.871094 C 45 19.535156 45.011719 19.59375 45.292969 19.863281 C 45.808594 20.390625 46.03125 20.296875 49.042969 18.28125 L 51.855469 16.40625 L 53.800781 16.40625 C 56.167969 16.40625 56.601562 16.289062 57.339844 15.46875 C 57.621094 15.164062 57.914062 14.695312 57.984375 14.4375 C 58.183594 13.792969 58.171875 7.757812 57.984375 7.101562 C 57.796875 6.457031 56.824219 5.484375 56.179688 5.296875 C 55.910156 5.214844 55.101562 5.15625 54.386719 5.15625 C 53.15625 5.15625 53.0625 5.167969 52.792969 5.449219 C 52.605469 5.625 52.5 5.871094 52.5 6.09375 C 52.5 6.316406 52.605469 6.5625 52.792969 6.738281 C 53.0625 7.019531 53.15625 7.03125 54.375 7.03125 C 55.59375 7.03125 55.6875 7.042969 55.957031 7.324219 L 56.25 7.605469 L 56.25 13.957031 L 55.957031 14.238281 C 55.675781 14.53125 55.652344 14.53125 53.472656 14.53125 L 51.269531 14.53125 L 49.066406 15.996094 L 46.875 17.460938 L 46.875 16.289062 C 46.875 15.1875 46.851562 15.082031 46.582031 14.824219 C 46.40625 14.636719 46.160156 14.53125 45.9375 14.53125 C 45.714844 14.53125 45.46875 14.425781 45.292969 14.238281 L 45 13.957031 L 45 7.605469 L 45.292969 7.324219 C 45.574219 7.03125 45.597656 7.03125 47.8125 7.03125 C 50.027344 7.03125 50.050781 7.03125 50.332031 6.738281 C 50.519531 6.5625 50.625 6.316406 50.625 6.09375 C 50.625 5.871094 50.519531 5.625 50.332031 5.449219 C 50.050781 5.15625 50.039062 5.15625 47.730469 5.167969 C 46.40625 5.179688 45.234375 5.238281 45 5.308594 Z M 45 5.308594 "/>
<path style=" stroke:none;fill-rule:nonzero;fill:#fff;fill-opacity:1;" d="M 10.605469 7.792969 C 10.335938 8.050781 10.3125 8.167969 10.3125 9.046875 L 10.3125 10.019531 L 9.375 10.535156 L 8.578125 10.066406 C 8.15625 9.820312 7.675781 9.609375 7.535156 9.609375 C 7.113281 9.609375 6.761719 10.042969 5.753906 11.800781 C 4.464844 14.0625 4.464844 14.179688 5.894531 15.011719 C 6.550781 15.398438 6.5625 15.410156 6.5625 15.9375 C 6.5625 16.464844 6.550781 16.476562 5.894531 16.863281 C 4.464844 17.695312 4.464844 17.8125 5.753906 20.074219 C 6.761719 21.832031 7.113281 22.265625 7.535156 22.265625 C 7.675781 22.265625 8.15625 22.054688 8.589844 21.796875 L 9.398438 21.328125 L 9.855469 21.597656 L 10.3125 21.855469 L 10.3125 22.828125 C 10.3125 23.707031 10.335938 23.824219 10.605469 24.082031 C 10.886719 24.375 10.910156 24.375 13.125 24.375 C 15.339844 24.375 15.363281 24.375 15.644531 24.082031 C 15.914062 23.824219 15.9375 23.707031 15.9375 22.828125 L 15.9375 21.855469 L 16.875 21.339844 L 17.671875 21.808594 C 18.09375 22.054688 18.574219 22.265625 18.714844 22.265625 C 19.136719 22.265625 19.488281 21.832031 20.496094 20.074219 C 21.785156 17.8125 21.785156 17.695312 20.367188 16.863281 L 19.6875 16.464844 L 19.6875 15.878906 C 19.675781 15.152344 19.523438 14.425781 19.3125 14.226562 C 19.230469 14.132812 18.996094 14.039062 18.796875 13.992188 C 18.515625 13.945312 18.363281 13.992188 18.105469 14.214844 C 17.765625 14.496094 17.765625 14.519531 17.753906 15.832031 C 17.742188 16.570312 17.789062 17.261719 17.847656 17.378906 C 17.894531 17.496094 18.234375 17.777344 18.585938 18 C 18.9375 18.222656 19.21875 18.445312 19.21875 18.492188 C 19.207031 18.539062 19.007812 18.902344 18.773438 19.300781 L 18.328125 20.015625 L 17.707031 19.664062 C 16.945312 19.21875 16.570312 19.21875 15.972656 19.652344 C 15.714844 19.828125 15.246094 20.109375 14.917969 20.261719 C 14.214844 20.589844 14.0625 20.859375 14.0625 21.796875 L 14.0625 22.5 L 12.1875 22.5 L 12.1875 21.796875 C 12.1875 20.894531 12.035156 20.578125 11.4375 20.320312 C 11.179688 20.191406 10.722656 19.933594 10.429688 19.734375 C 9.609375 19.171875 9.492188 19.160156 8.660156 19.605469 L 7.910156 20.003906 L 7.464844 19.265625 C 7.230469 18.867188 7.03125 18.492188 7.03125 18.433594 C 7.03125 18.386719 7.277344 18.210938 7.570312 18.058594 C 8.449219 17.589844 8.507812 17.460938 8.484375 15.902344 C 8.472656 14.367188 8.449219 14.285156 7.546875 13.816406 C 7.265625 13.664062 7.03125 13.488281 7.03125 13.441406 C 7.03125 13.394531 7.21875 13.007812 7.464844 12.597656 L 7.886719 11.859375 L 8.648438 12.257812 C 9.480469 12.703125 9.621094 12.691406 10.3125 12.199219 C 10.546875 12.035156 11.003906 11.765625 11.332031 11.613281 C 12.035156 11.285156 12.1875 11.015625 12.1875 10.078125 L 12.1875 9.375 L 14.0625 9.375 L 14.0625 10.160156 C 14.0625 10.605469 14.132812 11.039062 14.214844 11.144531 C 14.296875 11.25 14.648438 11.484375 15 11.660156 C 15.351562 11.835938 15.820312 12.105469 16.03125 12.269531 C 16.59375 12.691406 16.957031 12.644531 18.058594 12.011719 C 19.382812 11.261719 19.570312 11.074219 19.570312 10.535156 C 19.570312 10.195312 19.5 10.042969 19.265625 9.855469 C 18.820312 9.503906 18.5625 9.550781 17.671875 10.066406 L 16.875 10.535156 L 15.9375 10.019531 L 15.9375 9.046875 C 15.9375 8.167969 15.914062 8.050781 15.644531 7.792969 C 15.363281 7.5 15.339844 7.5 13.125 7.5 C 10.910156 7.5 10.886719 7.5 10.605469 7.792969 Z M 10.605469 7.792969 "/>
<path style=" stroke:none;fill-rule:nonzero;fill:#fff;fill-opacity:1;" d="M 29.765625 8.625 C 28.101562 9.234375 27.082031 10.769531 27.210938 12.457031 C 27.515625 16.183594 32.402344 17.226562 34.207031 13.945312 C 34.59375 13.242188 34.628906 13.113281 34.628906 12.1875 C 34.628906 11.273438 34.59375 11.121094 34.230469 10.453125 C 33.550781 9.210938 32.542969 8.566406 31.125 8.484375 C 30.539062 8.449219 30.140625 8.496094 29.765625 8.625 Z M 31.675781 10.476562 C 32.882812 10.980469 33.175781 12.550781 32.238281 13.488281 C 30.925781 14.8125 28.769531 13.628906 29.109375 11.777344 C 29.320312 10.675781 30.609375 10.019531 31.675781 10.476562 Z M 31.675781 10.476562 "/>
<path style=" stroke:none;fill-rule:nonzero;fill:#fff;fill-opacity:1;" d="M 12.1875 13.277344 C 11.964844 13.347656 11.507812 13.675781 11.191406 14.003906 C 10.359375 14.824219 10.125 15.703125 10.453125 16.804688 C 10.640625 17.449219 11.613281 18.421875 12.257812 18.609375 C 13.359375 18.9375 14.238281 18.703125 15.058594 17.871094 C 16.253906 16.6875 16.253906 15.1875 15.058594 14.003906 C 14.238281 13.171875 13.277344 12.9375 12.1875 13.277344 Z M 13.769531 15.292969 C 14.355469 15.867188 13.945312 16.875 13.125 16.875 C 12.644531 16.875 12.1875 16.417969 12.1875 15.9375 C 12.1875 15.457031 12.644531 15 13.125 15 C 13.347656 15 13.59375 15.105469 13.769531 15.292969 Z M 13.769531 15.292969 "/>
<path style=" stroke:none;fill-rule:nonzero;fill:#fff;fill-opacity:1;" d="M 43.089844 20.8125 C 39.714844 21.421875 36.632812 23.976562 35.402344 27.1875 C 34.875 28.546875 34.6875 29.835938 34.6875 32.132812 C 34.6875 34.078125 34.6875 34.113281 34.980469 34.394531 C 35.320312 34.746094 35.847656 34.769531 36.222656 34.464844 C 36.492188 34.242188 36.503906 34.183594 36.574219 31.792969 C 36.644531 29.625 36.679688 29.261719 36.9375 28.453125 C 37.394531 27.070312 38.015625 26.074219 39.070312 25.007812 C 40.125 23.953125 41.121094 23.332031 42.515625 22.875 C 43.300781 22.617188 43.617188 22.570312 45 22.570312 C 46.382812 22.570312 46.699219 22.617188 47.484375 22.875 C 48.878906 23.332031 49.875 23.953125 50.929688 25.007812 C 51.984375 26.0625 52.59375 27.046875 53.0625 28.453125 C 53.367188 29.355469 53.367188 29.367188 53.414062 34.089844 C 53.460938 39.175781 53.4375 39.363281 52.839844 40.125 L 52.617188 40.40625 L 51.960938 40.019531 C 51.222656 39.574219 50.460938 39.375 49.453125 39.375 C 49.066406 39.375 48.75 39.339844 48.75 39.304688 C 48.75 39.257812 49.089844 38.894531 49.511719 38.472656 C 50.882812 37.125 51.433594 35.824219 51.527344 33.785156 C 51.597656 32.496094 51.585938 32.472656 51.292969 32.179688 C 50.929688 31.816406 50.414062 31.78125 50.027344 32.097656 C 49.769531 32.296875 49.746094 32.449219 49.675781 33.609375 C 49.605469 34.710938 49.546875 35.015625 49.242188 35.671875 C 48.75 36.738281 48.070312 37.417969 47.015625 37.945312 C 46.171875 38.355469 46.066406 38.378906 45 38.378906 C 43.933594 38.378906 43.828125 38.355469 42.984375 37.945312 C 41.917969 37.417969 41.261719 36.738281 40.746094 35.648438 L 40.371094 34.863281 L 40.335938 32.390625 L 40.289062 29.929688 L 40.804688 29.777344 C 41.660156 29.519531 42.539062 28.921875 43.125 28.183594 L 43.429688 27.796875 L 43.957031 28.148438 C 44.789062 28.722656 46.277344 29.390625 47.285156 29.660156 C 47.824219 29.789062 48.808594 29.929688 49.59375 29.964844 C 50.941406 30.035156 50.953125 30.035156 51.257812 29.730469 C 51.65625 29.332031 51.667969 28.804688 51.269531 28.417969 C 51.011719 28.160156 50.894531 28.125 50.039062 28.125 C 47.789062 28.125 45.773438 27.351562 44.074219 25.851562 C 43.148438 25.019531 42.609375 25.125 42.117188 26.226562 C 41.613281 27.375 40.863281 27.9375 39.609375 28.101562 C 38.378906 28.277344 38.414062 28.171875 38.460938 31.933594 C 38.507812 34.980469 38.519531 35.121094 38.800781 35.871094 C 39.246094 37.03125 39.667969 37.6875 40.5 38.496094 C 40.910156 38.894531 41.25 39.257812 41.25 39.304688 C 41.25 39.339844 40.933594 39.375 40.546875 39.375 C 39.550781 39.375 38.777344 39.574219 38.039062 40.019531 C 37.441406 40.371094 37.382812 40.394531 37.21875 40.207031 C 36.808594 39.75 36.5625 38.976562 36.5625 38.050781 C 36.5625 37.242188 36.527344 37.101562 36.269531 36.855469 C 35.882812 36.46875 35.355469 36.46875 34.957031 36.867188 C 34.664062 37.160156 34.664062 37.207031 34.710938 38.367188 C 34.769531 39.703125 35.0625 40.535156 35.789062 41.425781 C 36.105469 41.8125 36.164062 41.953125 36.070312 42.117188 C 35.71875 42.738281 35.625 43.59375 35.625 46.136719 L 35.625 48.75 L 33.996094 48.75 C 32.34375 48.75 31.839844 48.84375 31.265625 49.242188 C 30.9375 49.464844 30.9375 49.464844 30.621094 49.242188 C 29.683594 48.597656 28.441406 48.597656 27.515625 49.242188 C 27.1875 49.464844 27.1875 49.464844 26.871094 49.242188 C 26.285156 48.84375 25.78125 48.75 24.128906 48.75 L 22.5 48.75 L 22.5 46.886719 L 25.816406 46.851562 L 29.121094 46.816406 L 29.859375 46.417969 C 30.679688 45.972656 31.03125 45.609375 31.5 44.71875 L 31.816406 44.121094 L 31.816406 29.003906 L 31.417969 28.265625 C 30.984375 27.457031 30.492188 26.988281 29.648438 26.578125 L 29.121094 26.308594 L 6.503906 26.308594 L 5.917969 26.601562 C 5.167969 26.964844 4.464844 27.667969 4.101562 28.417969 L 3.808594 29.003906 L 3.808594 44.121094 L 4.078125 44.648438 C 4.488281 45.492188 4.957031 45.984375 5.765625 46.417969 L 6.503906 46.816406 L 8.578125 46.851562 L 10.652344 46.898438 L 10.945312 46.59375 C 11.308594 46.242188 11.34375 45.726562 11.027344 45.339844 C 10.816406 45.070312 10.734375 45.058594 8.8125 45 C 6.632812 44.941406 6.492188 44.894531 5.929688 44.132812 C 5.683594 43.816406 5.683594 43.699219 5.683594 36.5625 C 5.683594 29.425781 5.683594 29.308594 5.929688 28.992188 C 6.058594 28.816406 6.316406 28.558594 6.492188 28.429688 C 6.808594 28.183594 6.890625 28.183594 17.8125 28.183594 C 28.734375 28.183594 28.816406 28.183594 29.132812 28.429688 C 29.308594 28.558594 29.566406 28.816406 29.695312 28.992188 C 29.941406 29.308594 29.941406 29.425781 29.941406 36.5625 C 29.941406 43.699219 29.941406 43.816406 29.695312 44.132812 C 29.566406 44.308594 29.308594 44.566406 29.132812 44.695312 C 28.828125 44.929688 28.628906 44.941406 25.664062 44.976562 L 22.523438 45.011719 L 22.476562 42.5625 L 22.441406 40.125 L 22.007812 39.234375 C 21.480469 38.167969 20.800781 37.511719 19.710938 36.996094 C 18.996094 36.65625 18.820312 36.621094 17.800781 36.621094 C 16.746094 36.621094 16.640625 36.644531 15.796875 37.054688 C 14.730469 37.582031 14.074219 38.261719 13.558594 39.351562 L 13.183594 40.136719 L 13.148438 44.4375 L 13.113281 48.75 L 11.519531 48.75 C 9.539062 48.75 9.140625 48.867188 8.378906 49.628906 C 7.710938 50.285156 7.5 50.824219 7.5 51.84375 L 7.5 52.5 L 4.980469 52.5 C 2.449219 52.5 2.449219 52.5 2.167969 52.792969 C 1.78125 53.167969 1.78125 53.707031 2.167969 54.082031 L 2.449219 54.375 L 57.550781 54.375 L 57.832031 54.082031 C 58.21875 53.707031 58.21875 53.167969 57.832031 52.792969 C 57.5625 52.511719 57.492188 52.5 55.933594 52.5 L 54.316406 52.5 L 54.351562 48 C 54.386719 43.546875 54.386719 43.476562 54.117188 42.679688 L 53.835938 41.859375 L 54.175781 41.472656 C 54.363281 41.25 54.679688 40.734375 54.890625 40.3125 L 55.253906 39.550781 L 55.289062 34.886719 C 55.324219 31.066406 55.289062 30.046875 55.136719 29.167969 C 54.164062 23.53125 48.761719 19.78125 43.089844 20.8125 Z M 18.679688 38.578125 C 19.324219 38.765625 20.296875 39.738281 20.484375 40.382812 C 20.578125 40.722656 20.625 42.058594 20.625 44.8125 L 20.625 48.75 L 15 48.75 L 15 44.8125 C 15 42.058594 15.046875 40.722656 15.140625 40.382812 C 15.316406 39.785156 16.300781 38.777344 16.875 38.589844 C 17.4375 38.414062 18.105469 38.414062 18.679688 38.578125 Z M 45.820312 40.242188 L 46.652344 40.125 L 45 41.777344 L 43.347656 40.125 L 44.179688 40.242188 C 44.707031 40.3125 45.292969 40.3125 45.820312 40.242188 Z M 43.160156 43.207031 C 42.984375 43.359375 42.773438 43.476562 42.703125 43.476562 C 42.597656 43.476562 42.140625 42.46875 41.753906 41.367188 C 41.71875 41.273438 42.09375 41.589844 42.585938 42.070312 L 43.488281 42.949219 Z M 47.847656 42.398438 C 47.613281 42.996094 47.367188 43.476562 47.308594 43.476562 C 47.25 43.476562 47.050781 43.359375 46.851562 43.230469 L 46.5 42.972656 L 47.355469 42.117188 C 47.824219 41.648438 48.222656 41.273438 48.246094 41.285156 C 48.257812 41.308594 48.082031 41.8125 47.847656 42.398438 Z M 40.570312 43.476562 C 41.015625 44.601562 41.484375 45.621094 41.625 45.726562 C 42.035156 46.089844 42.410156 45.972656 43.734375 45.105469 L 45 44.261719 L 46.265625 45.105469 C 47.589844 45.972656 47.964844 46.089844 48.375 45.726562 C 48.515625 45.621094 48.972656 44.625 49.40625 43.535156 C 49.839844 42.433594 50.226562 41.496094 50.273438 41.449219 C 50.601562 41.074219 52.101562 42.339844 52.359375 43.195312 C 52.441406 43.476562 52.5 44.367188 52.5 45.28125 L 52.5 46.875 L 50.625 46.875 L 50.625 46.230469 C 50.625 45.691406 50.578125 45.527344 50.332031 45.292969 C 49.957031 44.90625 49.417969 44.90625 49.042969 45.292969 C 48.761719 45.5625 48.75 45.632812 48.75 47.15625 L 48.75 48.726562 L 46.96875 48.773438 C 45.410156 48.808594 45.117188 48.84375 44.707031 49.066406 C 43.640625 49.628906 43.054688 50.695312 43.171875 51.820312 L 43.242188 52.5 L 41.25 52.5 L 41.25 45.574219 L 40.957031 45.292969 C 40.78125 45.105469 40.535156 45 40.3125 45 C 39.714844 45 39.375 45.445312 39.375 46.230469 L 39.375 46.875 L 37.5 46.875 L 37.5 45.28125 C 37.5 44.390625 37.558594 43.476562 37.640625 43.21875 C 37.875 42.410156 39.070312 41.308594 39.597656 41.402344 C 39.679688 41.414062 40.113281 42.351562 40.570312 43.476562 Z M 39.375 50.625 L 39.375 52.5 L 32.449219 52.5 L 32.167969 52.207031 C 31.980469 52.03125 31.875 51.785156 31.875 51.5625 C 31.875 51.339844 31.980469 51.09375 32.167969 50.917969 C 32.449219 50.625 32.472656 50.625 34.6875 50.625 C 36.902344 50.625 36.925781 50.625 37.207031 50.332031 C 37.453125 50.097656 37.5 49.933594 37.5 49.394531 L 37.5 48.75 L 39.375 48.75 Z M 52.5 50.332031 C 52.5 51.867188 52.488281 51.9375 52.207031 52.207031 L 51.925781 52.5 L 45.574219 52.5 L 45.292969 52.207031 C 44.976562 51.902344 44.917969 51.386719 45.152344 51.082031 C 45.457031 50.683594 45.785156 50.625 47.929688 50.625 C 50.027344 50.625 50.050781 50.625 50.332031 50.332031 C 50.578125 50.097656 50.625 49.933594 50.625 49.394531 L 50.625 48.75 L 52.5 48.75 Z M 25.957031 50.917969 C 26.203125 51.152344 26.25 51.316406 26.25 51.855469 L 26.25 52.5 L 9.375 52.5 L 9.375 51.855469 C 9.375 51.316406 9.421875 51.152344 9.667969 50.917969 L 9.949219 50.625 L 25.675781 50.625 Z M 29.707031 50.917969 C 29.953125 51.152344 30 51.316406 30 51.855469 L 30 52.5 L 28.125 52.5 L 28.125 51.855469 C 28.125 51.070312 28.464844 50.625 29.0625 50.625 C 29.285156 50.625 29.53125 50.730469 29.707031 50.917969 Z M 29.707031 50.917969 "/>
<path style=" stroke:none;fill-rule:nonzero;fill:#fff;fill-opacity:1;" d="M 42.480469 31.230469 C 41.894531 31.804688 42.304688 32.8125 43.125 32.8125 C 43.605469 32.8125 44.0625 32.355469 44.0625 31.875 C 44.0625 31.394531 43.605469 30.9375 43.125 30.9375 C 42.902344 30.9375 42.65625 31.042969 42.480469 31.230469 Z M 42.480469 31.230469 "/>
<path style=" stroke:none;fill-rule:nonzero;fill:#fff;fill-opacity:1;" d="M 46.230469 31.230469 C 45.644531 31.804688 46.054688 32.8125 46.875 32.8125 C 47.355469 32.8125 47.8125 32.355469 47.8125 31.875 C 47.8125 31.394531 47.355469 30.9375 46.875 30.9375 C 46.652344 30.9375 46.40625 31.042969 46.230469 31.230469 Z M 46.230469 31.230469 "/>
<path style=" stroke:none;fill-rule:nonzero;fill:#fff;fill-opacity:1;" d="M 12.480469 32.167969 C 12.292969 32.34375 12.1875 32.589844 12.1875 32.8125 C 12.1875 33.035156 12.292969 33.28125 12.480469 33.457031 L 12.761719 33.75 L 22.863281 33.75 L 23.144531 33.457031 C 23.332031 33.28125 23.4375 33.035156 23.4375 32.8125 C 23.4375 32.589844 23.332031 32.34375 23.144531 32.167969 L 22.863281 31.875 L 12.761719 31.875 Z M 12.480469 32.167969 "/>
<path style=" stroke:none;fill-rule:nonzero;fill:#fff;fill-opacity:1;" d="M 2.167969 56.542969 C 1.980469 56.71875 1.875 56.964844 1.875 57.1875 C 1.875 57.410156 1.980469 57.65625 2.167969 57.832031 L 2.449219 58.125 L 57.550781 58.125 L 57.832031 57.832031 C 58.21875 57.457031 58.21875 56.917969 57.832031 56.542969 L 57.550781 56.25 L 2.449219 56.25 Z M 2.167969 56.542969 "/>
</g>
</svg>
