<?xml version="1.0" encoding="UTF-8"?>
<svg xmlns="http://www.w3.org/2000/svg" xmlns:xlink="http://www.w3.org/1999/xlink" width="60px" height="60px" viewBox="0 0 60 60" version="1.1">
<g id="surface1">
<path style=" stroke:none;fill-rule:nonzero;fill:#fff;fill-opacity:1;" d="M 51.476562 9.523438 L 40.988281 9.523438 C 40.527344 6.191406 37.667969 3.613281 34.210938 3.613281 L 26.125 3.613281 C 22.664062 3.613281 19.800781 6.191406 19.339844 9.523438 L 8.523438 9.523438 C 3.820312 9.523438 0 13.34375 0 18.046875 L 0 47.867188 C 0 52.566406 3.820312 56.386719 8.523438 56.386719 L 51.476562 56.386719 C 56.179688 56.386719 60 52.566406 60 47.867188 L 60 18.046875 C 60 13.34375 56.179688 9.523438 51.476562 9.523438 Z M 26.125 6.804688 L 34.210938 6.804688 C 35.902344 6.804688 37.320312 7.964844 37.738281 9.523438 L 22.589844 9.523438 C 23.007812 7.964844 24.429688 6.804688 26.125 6.804688 Z M 56.804688 47.867188 C 56.804688 50.804688 54.417969 53.195312 51.476562 53.195312 L 8.523438 53.195312 C 5.582031 53.195312 3.195312 50.804688 3.195312 47.867188 L 3.195312 18.046875 C 3.195312 15.109375 5.582031 12.722656 8.523438 12.722656 L 51.476562 12.722656 C 54.417969 12.722656 56.804688 15.109375 56.804688 18.046875 Z M 56.804688 47.867188 "/>
<path style=" stroke:none;fill-rule:nonzero;fill:#fff;fill-opacity:1;" d="M 44.207031 18.746094 C 43.316406 17.855469 42.121094 17.363281 40.84375 17.363281 C 39.488281 17.363281 38.207031 17.902344 37.195312 18.914062 L 33.285156 23.09375 L 18.769531 18.75 L 15.636719 21.882812 C 14.746094 22.777344 14.75 24.226562 15.640625 25.117188 L 15.800781 25.273438 L 25.949219 30.859375 L 22.101562 34.773438 L 17.523438 33.839844 L 15.390625 35.976562 C 14.984375 36.375 14.765625 36.910156 14.765625 37.472656 C 14.765625 38.039062 14.984375 38.574219 15.382812 38.972656 L 24.046875 47.628906 C 24.445312 48.027344 24.976562 48.25 25.542969 48.25 C 26.109375 48.25 26.644531 48.027344 27.039062 47.628906 L 29.179688 45.492188 L 28.222656 40.824219 L 32.113281 36.988281 L 37.738281 47.21875 L 37.902344 47.375 C 38.335938 47.808594 38.90625 48.046875 39.519531 48.046875 C 40.128906 48.046875 40.707031 47.808594 41.136719 47.375 L 44.265625 44.246094 L 39.894531 29.632812 L 44.070312 25.71875 C 46.035156 23.761719 46.09375 20.628906 44.207031 18.746094 Z M 41.855469 23.421875 L 36.261719 28.65625 L 40.660156 43.335938 L 39.75 44.242188 L 32.875 31.75 L 24.746094 39.769531 L 25.703125 44.445312 L 25.542969 44.605469 L 18.40625 37.472656 L 18.570312 37.3125 L 23.164062 38.25 L 31.179688 30.09375 L 18.773438 23.265625 L 19.679688 22.359375 L 34.265625 26.722656 L 39.492188 21.136719 C 39.863281 20.765625 40.339844 20.558594 40.84375 20.558594 C 41.269531 20.558594 41.664062 20.71875 41.949219 21.003906 C 42.589844 21.648438 42.53125 22.75 41.855469 23.421875 Z M 41.855469 23.421875 "/>
</g>
</svg>
