<?xml version="1.0" standalone="no"?>
<!DOCTYPE svg PUBLIC "-//W3C//DTD SVG 20010904//EN"
 "http://www.w3.org/TR/2001/REC-SVG-20010904/DTD/svg10.dtd">
<svg version="1.0" xmlns="http://www.w3.org/2000/svg"
 width="512.000000pt" height="512.000000pt" viewBox="0 0 512.000000 512.000000"
 preserveAspectRatio="xMidYMid meet">

<g transform="translate(0.000000,512.000000) scale(0.100000,-0.100000)"
fill="#000000" stroke="none">
<path d="M1991 4354 c-88 -24 -166 -72 -235 -145 -105 -110 -156 -241 -156
-396 l0 -83 -565 0 c-545 0 -566 -1 -619 -21 -70 -26 -139 -92 -174 -167 l-27
-57 0 -1245 0 -1245 26 -56 c33 -69 89 -127 155 -160 l49 -24 2102 -3 2102 -2
55 21 c70 26 139 92 174 167 l27 57 0 1245 0 1245 -27 57 c-35 75 -104 141
-174 167 -53 20 -74 21 -619 21 l-565 0 0 83 c0 257 -164 481 -395 542 -85 22
-1052 21 -1134 -1z m1127 -223 c69 -31 144 -114 168 -183 11 -33 18 -84 18
-133 l1 -80 -745 0 -745 0 -3 50 c-4 58 13 157 35 199 21 41 92 115 127 133
78 41 94 42 601 40 l490 -2 53 -24z m1522 -628 c16 -9 33 -27 39 -40 7 -15 11
-98 11 -212 0 -171 -2 -190 -17 -196 -10 -4 -376 -133 -813 -287 l-794 -280
-26 33 c-42 56 -82 90 -140 118 l-55 26 -285 0 -285 0 -55 -26 c-58 -28 -98
-62 -140 -118 l-25 -33 -770 272 c-424 150 -789 279 -812 287 l-43 15 0 188
c0 202 5 226 48 253 25 15 185 16 2080 17 1899 0 2056 -1 2082 -17z m-3405
-952 l790 -279 5 -114 c4 -86 11 -124 27 -159 28 -63 93 -125 162 -158 l56
-26 285 0 285 0 56 26 c69 33 127 89 160 155 20 40 25 69 29 162 l5 114 790
279 c435 153 793 279 798 279 12 0 9 -1785 -4 -1813 -6 -13 -23 -31 -39 -40
-26 -16 -184 -17 -2080 -17 -1896 0 -2054 1 -2080 17 -16 9 -33 27 -39 40 -13
28 -16 1813 -3 1813 4 0 363 -126 797 -279z m1588 -112 c47 -21 57 -56 57
-199 0 -143 -10 -178 -57 -199 -32 -15 -494 -15 -526 0 -47 21 -57 56 -57 199
0 141 10 177 54 199 29 14 498 14 529 0z"/>
</g>
</svg>
